<svg xmlns="http://www.w3.org/2000/svg" width="1000" height="1000" viewBox="0 0 1000 1000">
  <g id="Layer_x0020_1" transform="translate(0 0)">
    <path id="Path_2" data-name="Path 2" d="M69.207,0H930.793A69.4,69.4,0,0,1,1000,69.207V930.793A69.4,69.4,0,0,1,930.793,1000H69.207A69.4,69.4,0,0,1,0,930.793V69.207A69.4,69.4,0,0,1,69.207,0ZM216.54,498.306c-17.248,16.139-32.673,37.232-34.254,55.757,16.838-4.909,36.928-18.692,53.083-33.828,9.164-8.586,17.066-17.583,22.355-25.622,5.091-7.7,7.735-14.376,6.717-18.631a4.985,4.985,0,0,0-1.246-2.355,4.8,4.8,0,0,0-3.556-1.2c-4.407-.046-11,2.568-18.54,7.051a148.824,148.824,0,0,0-24.558,18.844Zm359.072,41.533c-9.3,8.51-17.37,18.555-21.032,24.619a84.707,84.707,0,0,0,16.884-4.772c8.814-3.419,17.963-8.282,24.771-13.936,6.519-5.395,10.835-11.443,10.471-17.446a12.341,12.341,0,0,0-.517-2.811c-8.237-2.811-20.121,4.757-30.591,14.346Zm120.815,25.227c10.851-10.8,28.464-28.373,30.47-37.916C713.63,524.824,693.768,538,676.884,554.23a181.891,181.891,0,0,0-20.394,23.145c-5.471,7.477-9.407,14.391-10.9,19.558-.881,3.055-.9,5.319.167,6.428,5.076,5.273,17.461-4.422,27.81-14.376,6.094-5.866,11.458-11.854,14.5-15.242l2.112-2.34c1.535-1.626,3.723-3.8,6.261-6.337Zm19.361,15.607c-6.064,6.763-11.55,12.887-12.34,23.114,24.816-.76,48.934-20.212,66.881-34.679,10.7-8.632,19.3-15.562,25.227-16.169l2.158-.228.076,2.173c.076,2.538-1.353,5.744-4,9.346-7.006,9.559-23.084,23.054-40.925,34.223-17.9,11.215-37.688,20.166-52.095,20.653-5.653.182-10.562-.912-14.3-3.647-4.62-3.389-6.216-8.13-7.6-12.249-.35-1.049-.684-2.052-1.049-2.948a97.467,97.467,0,0,1-16.884,12.9c-5.608,3.313-11.626,5.851-17.081,6.216-16.99,1.109-19.969-9-20.8-21.96-.137-2.082-.213-4.392-.289-6.747l-.213-5.228c-3.009,1.869-6.6,4.361-10.577,7.112-20.82,14.437-52.4,36.32-77.778,23.1a31.122,31.122,0,0,1-15.516-19.923c-2.249-8.343-1.763-18.236,2.158-28.449,2.371-6.185,6.489-12.537,11.565-18.51a107.208,107.208,0,0,1,18.783-17.233c22.339-16.048,40.956-21.686,53.143-20.607a21,21,0,0,1,11.55,4.194,13.715,13.715,0,0,1,5.061,9.513c.623,6.185-2.325,13.981-9.544,22.324a85.176,85.176,0,0,1-16.185,14.27,128.563,128.563,0,0,1-21.64,11.808,90.047,90.047,0,0,1-16.747,5.076c-11.17,2.523-18.054,4.088-15.394,22.005,11.094,10.44,31.473,2.918,50.606-8.708,19.908-12.1,38.4-28.661,44.42-34.618l.091-.106c9.437-9.376,19.878-19.224,31.913-27.415,12.112-8.252,25.85-14.817,41.776-17.568,8.054-1.383,13.768-1.611,18.312.137,4.042,1.55,6.991,4.544,9.6,9.468,9.62-10.045,37.795-45.56,64.3-78.963,21.109-26.61,41.153-51.882,50.059-62.034,4.5-5.137,12.173-7.4,18.221-7.021a15.847,15.847,0,0,1,5.638,1.337,7.883,7.883,0,0,1,3.906,3.708c1.018,2.173.881,4.878-.973,8.039l-.2.274-159.8,190.083c-1.14,1.322-2.31,2.644-3.48,3.951ZM391.806,381.107c-9.468,7.994-19.574,16.519-19.391,26.595,27.582,2.492,57.824-28.342,82.549-53.539,17.1-17.431,31.64-32.248,41.928-32.339l2.355-.015-.319,2.325c-1.14,8.221-15.972,26.4-25.485,38.068-3.039,3.723-5.516,6.763-6.763,8.5-5.744,8.009-10.668,15.5-15.318,23.084s-9.057,15.334-13.723,23.8c-22.826,41.427-26.625,46.73-39.679,64.982-3.3,4.6-7.188,10.06-12.142,17.142,12.75-11.382,32.886-32.628,55.545-56.548,50.818-53.66,114.25-120.633,138.459-121.818l2.447-.122-.334,2.416c-1.018,7.4-15.334,29.3-23.859,42.354-2.432,3.723-4.392,6.717-5.41,8.4-6.519,10.835-12.249,21.868-18.221,33.357-2.583,4.969-5.228,10.06-8.449,16.078l-49.42,86.318c8.313-8.176,17.674-18.206,26.655-27.856,4.924-5.289,9.741-10.455,14.27-15.2,11.033-11.534,20.835-21.5,31.017-31.883,6.292-6.413,12.735-12.978,19.194-19.619l2.416-2.492c19.68-20.318,91.789-94.707,110.907-86.926l1.292.532-.03,1.4c-.167,7.158-1.824,8.222-6.246,11.048l-2.143,1.413-31.731,23.054c-10.243,8.419-19.042,16.823-27.749,25.151-3.586,3.419-7.158,6.854-10.775,10.212-5.912,5.486-24.057,24.573-47.627,49.344-62.5,65.7-162.987,171.33-176.892,171.922l-2.112.091.015-2.128c.046-8.647,18.51-32.688,30.9-48.828,4.118-5.364,7.568-9.848,9.376-12.522,10.8-15.911,26.959-44.633,42.794-72.763,11.185-19.893,22.218-39.512,31.245-54.344l31.336-48.068c-2.887,2.705-5.805,5.592-8.4,8.161l-3.83,3.769c-2.462,2.4-4.817,4.635-7.249,6.945-4.5,4.27-9.3,8.845-15.577,15.106-19.376,19.406-38.023,38.722-56.684,58.082-24.254,25.136-48.584,50.362-74.8,76.045-5.41,5.289-10.7,10.015-15.957,14.7C330.107,573.469,320.214,582.3,310.776,594c-7.127,8.845-14.467,16.96-21.777,24.437-7.325,7.477-14.6,14.285-21.595,20.516-35.7,31.792-66.5,42.43-90.634,39.36A57.714,57.714,0,0,1,142.76,661.55c-8.966-8.966-15.562-20.9-19.467-34.482-8.981-31.26-3.814-71.532,19.042-105.026,10.82-15.85,26.929-32.977,44.861-47.84,16.96-14.042,35.606-26.108,53.067-33.236,22.856-9.346,40.393-10.714,52.46-6.793a28.281,28.281,0,0,1,15.987,12.173c3.359,5.532,4.787,12.34,4.255,19.847-1.033,14.6-9.513,32.081-25.455,48.2-26.822,27.142-52.885,39.284-83.963,53.782-8.48,3.951-17.324,8.085-26.382,12.6-.015,13.936,2.432,24.163,6.747,31.26,4.878,8.039,12.233,12.066,21.124,12.948,9.164.912,20.014-1.489,31.518-6.307,26.306-10.987,55.833-34.5,77.261-60.164,8.146-9.756,39.846-55.8,64.891-95.087,14.133-22.172,26.108-42.126,30.424-51.988a104.351,104.351,0,0,1-26.017,9.574c-6.717,1.413-13.419,1.9-19.042.653-5.957-1.322-10.7-4.529-13.069-10.486a26.253,26.253,0,0,1-1.5-11.291c.805-14.012,12.309-23.707,22.613-32.4,8.693-7.34,16.473-13.905,15.015-21.032-17.841-2.948-40.074,12.309-51.943,20.44l-1.489,1.018c-10.9,7.446-18.753,15.774-24.938,22.339-6.945,7.37-11.914,12.644-17.37,12.583l-1.656-.015-.319-1.611c-1.915-9.711,8.951-22.355,23.859-34.163,20.577-16.306,49.1-31.382,61.076-34.254,9.62-2.31,18.039-1.9,24.452.486a21.237,21.237,0,0,1,10.182,7.492,17.551,17.551,0,0,1,3.1,11.762c-.41,5.137-2.827,10.851-7.629,16.732-3.267,4.012-7.887,7.9-12.644,11.914Z" fill="#b35f83" fill-rule="evenodd"/>
  </g>
</svg>
