<svg xmlns="http://www.w3.org/2000/svg" width="426.628" height="451.372" viewBox="0 0 426.628 451.372">
  <g id="Group_40" data-name="Group 40" transform="translate(-29.405 -18.132)">
    <g id="BACKGROUND">
      <path id="Path_1" data-name="Path 1" d="M445.293,138.047c-18.7-65.153-81.052-95.887-135.911-56.1-34.184,25.526-47.374,69.651-50.735,111.9C129.3,33.414-45.426,150.01,63.739,307.931c56.23,77.694,151.053,105.874,237.866,113.181,2.2.2,4.338.376,6.56.558,2.788.552.708-.2,2.552-1.06,11.624-11,100.672-96.916,128.055-173.971C451.081,210.495,450.75,171.139,445.293,138.047Z" fill="#b35f83" opacity="0.2"/>
    </g>
    <g id="OBJECTS">
      <g id="Group_28" data-name="Group 28">
        <ellipse id="Ellipse_1" data-name="Ellipse 1" cx="141.656" cy="15.426" rx="141.656" ry="15.426" transform="translate(108.344 438.651)" fill="#b35f83" opacity="0.3" style="mix-blend-mode: multiply;isolation: isolate"/>
        <path id="Path_2" data-name="Path 2" d="M268.728,193.953c5.2.853,7.044,9.221,2.789,16.927-3.1,7.916-24.338,31.5-46.923,36.644-21.474,5.959-39.3.778-47.74-4.878-.061-.035-.662-5.437,4.108-7.6-.6-1.105,12.266,9.576,41.869-.542,27.731-12.443,31.334-27.683,33.817-32.274C260.152,195.748,265.449,193.374,268.728,193.953Z" fill="#edbaa3"/>
        <g id="Group_12" data-name="Group 12">
          <path id="Path_3" data-name="Path 3" d="M203.922,446.323s-.209,6.1.866,7.391,25.716,3.007,27.248.712-8.537-4.625-10.452-6.956-.947-4.661-6.205-4.617S203.922,446.323,203.922,446.323Z" fill="#b35f83"/>
          <path id="Path_4" data-name="Path 4" d="M142.318,425.829s-5.775,4.461-6.249,6.122,12.191,21.545,14.915,21.327-.85-9.691.023-12.675,2.277-5.409-.626-9.566A14.335,14.335,0,0,0,142.318,425.829Z" fill="#b35f83"/>
          <path id="Path_5" data-name="Path 5" d="M172.358,283.124c-.856,10.872.51,66.814-5.543,79.148s-29.988,66.361-29.988,66.361,9.477,12.625,15.715,12.84c4.306.148,34.194-65.274,37.436-72.048,6.115-12.78,16.312-71.946,19.17-73.818,3.89-2.549,11.62,48.413,11.758,59.8.065,5.395-22.429,90.315-19.346,93.019s15.879-.646,20.309-1.389,24.358-79.458,25.158-88.886c1.335-15.722-1.018-47.9-9.17-73.128-2.527-7.823-4.73-29.074-5.529-30.06-2.552-3.152-32.5-2.9-50.806.58C176.012,256.586,173.326,270.818,172.358,283.124Z" fill="#2d2433"/>
          <g id="Group_5" data-name="Group 5">
            <path id="Path_6" data-name="Path 6" d="M223.942,122.205a35.386,35.386,0,0,0-4.365-13.826,6.668,6.668,0,0,0-1.439-2.046,1.934,1.934,0,0,0-2.181-.34,3.487,3.487,0,0,0-1.391,2.343,15.846,15.846,0,0,0,.243,6.032q1.335,7.766,2.671,15.53a17.02,17.02,0,0,0,1.417,5.059c1.128,2.12,2.071.132,2.918-1.5A21.521,21.521,0,0,0,223.942,122.205Z" fill="#2d2433"/>
            <g id="Group_1" data-name="Group 1">
              <path id="Path_7" data-name="Path 7" d="M201.833,175.14l-11.779.573-.631-12.475,11.779-.573Z" fill="#e4a791"/>
              <path id="Path_8" data-name="Path 8" d="M193.51,168.949c-1.237-.216-2.469-.472-3.7-.705l-.133-.025-.252-4.981,11.779-.572.329,6.509A25.307,25.307,0,0,1,193.51,168.949Z" fill="#a34b5f" opacity="0.3" style="mix-blend-mode: multiply;isolation: isolate"/>
            </g>
            <path id="Path_9" data-name="Path 9" d="M174.518,151.865a48.808,48.808,0,0,0,2.837,5.257c3.112,5.013,7.62,7.565,12.808,8.818a46.367,46.367,0,0,0,9.773,1.107,27.173,27.173,0,0,0,10.806-1.787c5.614-2.42,8.99-7.568,10.613-17.075.047-.289.1-.585.134-.889v-.007c1.59-10.436,2.342-27.67-5.724-36.679-11.281-13.993-33.6-12.943-42.689,2.27C167.043,123.462,168.74,139.475,174.518,151.865Z" fill="#e4a791"/>
            <path id="Path_10" data-name="Path 10" d="M223.991,96.63c-4.232-5.094-4.923.813-9.256,2.375-7.368-.24-24.061-5.356-35.555-3.521-7.073,1.129-12.2,6.769-11.91,12.215-10.811-2.816-7.047,24.15-2.976,27.634,4.115,5.671,4.344,3.559,8.718,4.985,2.91,6.055,5.277-.263,4.232-6.249-.2-2,.309-2.3,1.365-5.5,5.107-9.016-1.384-10.864,2.188-14.627,3.484-3.3,35.461,13.511,26.927,1.715,5.394,3.161,26.205,2.265,12.678-5.211C227.3,109.795,228.219,101.572,223.991,96.63Z" fill="#2d2433"/>
            <g id="Group_4" data-name="Group 4">
              <path id="Path_18" data-name="Path 18" d="M174.956,148.164c-.768,2.636-4.882,3.75-8.342,1.56s-6.208-9.147-3.883-13.1,8.333-2.5,10.789,1.976A14.171,14.171,0,0,1,174.956,148.164Z" fill="#e4a791"/>
            </g>
          </g>
          <path id="Path_20" data-name="Path 20" d="M214.109,179.827c-3.722.85-5.432,11.17-1.317,19.8s16.362,34.891,26.4,38.925,49.371,8.137,49.371,8.137,6.337-9.2-1.253-14.287c0,0-32.495-6.874-38.98-9.334-4.769-1.81-14.486-20.181-16-24.709S227.583,176.752,214.109,179.827Z" fill="#443c4a"/>
          <path id="Path_21" data-name="Path 21" d="M223.156,183.2c-6.755-5.678-43.042-9.8-51.371-.926s-1.711,40.782,3.428,58.433c4.995,17.156-1.729,20.333,1.643,23.547,3.284,3.131,15.085,6.07,34.711,2.828,17.581-2.9,21.829-4.649,21.826-8.589,0-1.515-3.727-13.764-4.444-27.149C228.6,224.792,225.647,185.295,223.156,183.2Z" fill="#fff"/>
          <path id="Path_22" data-name="Path 22" d="M201.7,184.718a98.169,98.169,0,0,1,2.941,13.317q1.188,6.735,1.974,13.554a227.685,227.685,0,0,1,1.519,27.354c-.03,5.218-.214,10.445-.765,15.66-.03.285-.449.3-.439.008.3-9.18.533-18.337.09-27.48a229.083,229.083,0,0,0-2.943-27.156q-.637-3.765-1.4-7.5c-.516-2.527-1.114-5.04-1.516-7.6A.282.282,0,0,1,201.7,184.718Z" fill="#475765" opacity="0.2" style="mix-blend-mode: multiply;isolation: isolate"/>
          <g id="Group_6" data-name="Group 6">
            <path id="Path_23" data-name="Path 23" d="M162.245,179.616c-5.059,9.827,7.483,35.74,9.331,59.16s-6.412,42.557-6.624,45.026,29.708,4.2,38.311-8.256,5.659-25.349,5.121-44.415-20.373-51.6-21.174-54.249C187.407,175.871,167.3,169.788,162.245,179.616Z" fill="#443c4a"/>
            <path id="Path_24" data-name="Path 24" d="M210.288,236.492c-.526.547-22.068-28.551-23.1-31.179s3.511-11.577,2.745-12.541-6.846,2.225-8.1,1.5-1.888-9.016-.383-13.049,4.141-9.574,9.179-2.248c2.054,2.986,6.543,14.506,10.715,26.25C206.608,220.041,211.214,235.528,210.288,236.492Z" fill="#645a6b"/>
          </g>
          <g id="Group_7" data-name="Group 7">
            <path id="Path_25" data-name="Path 25" d="M205,177.48c3.335,1.6,12.085,19.511,1.97,51.242-6.3,19.749,6.832,36.752,11.036,43.437s13.561,9.6,18.886,7.436,2.511-19.573-.209-43.891-8.435-54.344-16.137-56.877C212.616,176.217,204.846,176.847,205,177.48Z" fill="#443c4a"/>
            <path id="Path_26" data-name="Path 26" d="M206.02,234.585c2.085.293,15.508-28.276,15.6-30.9s-7.11-11.593-6.751-12.8,4.862,1.234,5.7-.091-3.37-9.295-6.728-11.744c-2.749-2.006-8.338-5.774-7.042,1.163.842,4.5,4.325,13.922,3.679,26.21C209.773,219.822,205.031,234.446,206.02,234.585Z" fill="#645a6b"/>
          </g>
          <g id="Group_10" data-name="Group 10">
            <g id="Group_8" data-name="Group 8">
              <path id="Path_27" data-name="Path 27" d="M196.854,173.788c-1.408-1.008-6.309-3.362-8.179-1.994a3.887,3.887,0,0,0-1.332,4.97c.785,1.413,6.8,5.195,10.287,4.465C199.728,180.79,197.848,174.5,196.854,173.788Z" fill="#f8eddc"/>
              <path id="Path_28" data-name="Path 28" d="M196.854,173.788c-1.408-1.008-8.191-4.882-10.06-3.514s-3.7,5.077-2.912,6.49,6.929,5.582,10.419,4.851C196.4,181.176,197.848,174.5,196.854,173.788Z" fill="#fff"/>
              <path id="Path_29" data-name="Path 29" d="M198.965,174.251c.813-1.1,3.728-3.8,5-2.568a5.3,5.3,0,0,1,1.19,4.861c-.393,1.464-4.371,5.18-6.618,4.7C197.188,180.954,198.39,175.031,198.965,174.251Z" fill="#f8eddc"/>
              <path id="Path_30" data-name="Path 30" d="M198.965,174.251c.813-1.1,1.942-4.341,4.214-4.157,1.715.139,3.972,4.153,3.534,5.636-.575,1.943-2.184,5.834-4.384,5.508S198.39,175.031,198.965,174.251Z" fill="#fff"/>
            </g>
            <g id="Group_9" data-name="Group 9">
              <path id="Path_31" data-name="Path 31" d="M193.683,185.236a4.632,4.632,0,0,1-2.714.255,3,3,0,0,1-2.082-1.987,2.436,2.436,0,0,1,.871-2.792c-1.112-.048-1.9-1.631-1.628-2.921a3.179,3.179,0,0,1,2.407-2.417,6.147,6.147,0,0,1,3.295.415,7.423,7.423,0,0,1,4.438,3.3,3.7,3.7,0,0,1,.474,1.782C198.7,183.027,195.134,184.721,193.683,185.236Z" fill="#b35f83"/>
              <path id="Path_32" data-name="Path 32" d="M203.221,184.368a4.18,4.18,0,0,0,2.456.016,2.7,2.7,0,0,0,1.713-1.947,2.193,2.193,0,0,0-1-2.437c.995-.131,1.576-1.613,1.233-2.751a2.862,2.862,0,0,0-2.35-1.98,5.538,5.538,0,0,0-2.925.63,6.681,6.681,0,0,0-3.725,3.307,3.347,3.347,0,0,0-.287,1.637C198.543,182.778,201.878,184.019,203.221,184.368Z" fill="#b35f83"/>
              <path id="Path_33" data-name="Path 33" d="M201.082,180.859a2.626,2.626,0,0,1-1.916,2.429c-1.12.137-2.153-.973-2.542-2.251a4.519,4.519,0,0,1,.015-2.8,2.487,2.487,0,0,1,1.78-1.689C200.3,176.24,201.3,179,201.082,180.859Z" fill="#98476a"/>
            </g>
          </g>
          <g id="Group_11" data-name="Group 11">
            <path id="Path_34" data-name="Path 34" d="M152.765,60.789a55.59,55.59,0,0,1,8.4-10.213c2.459-2.267,3.385-1.973,2.065.033-1.255,1.907-2.987,3.832-2.631,4.114.18.145,1.155-1.481,3.12-3.224,2.277-2.021,4.193-3.4,4.723-2.492s-3.779,5.477-4.967,7.149c-1.423,1.43,4.091-3.463,6.668-4.7,2.737-1.532,4.1-.565,1.178,1.856-2.873,2.5-4.945,4.469-5.313,5.4.927-.261,1.75-.961,5.508-3.215,2.879-1.569,3.841-.239,1.47,1.811-2.877,2.451-7.65,5.561-7.146,6.731.707.619,1.751-.407,5.259-.611,3.54-.174-.465,1.821-3.464,3.375-3.169,1.553-5.789,4.392-7.867,5.9-2.824,2.021-3.7,3.507-6.527,1.61-1.648-1.107-4.564-2.456-4.633-5.1C148.555,67.1,150.933,63.965,152.765,60.789Z" fill="#e4a791"/>
            <path id="Path_35" data-name="Path 35" d="M161.008,60.339a.242.242,0,0,0-.484,0,21.663,21.663,0,0,1-.543,4.459q-.246,1.061-.566,2.1a13.955,13.955,0,0,0-.58,2.17c-.025.183.213.41.366.213A9.694,9.694,0,0,0,160.715,65,22.4,22.4,0,0,0,161.008,60.339Z" fill="#a34b5f" opacity="0.5"/>
            <path id="Path_36" data-name="Path 36" d="M171.27,186.681c-.443,4.561-4.05,10.764-7.622,11.231-3.463.453-10.53-7.292-13.532-11.257-7.034-9.292-22.5-23.95-26.807-54.206s15.817-57.93,23.51-66.807c.049-.065,11.313,2.048,13.131,7.8,1.356-.538-20.866,27.141-16.778,53.893s17.075,38.332,22.005,41.8C172.135,174.026,171.714,182.119,171.27,186.681Z" fill="#443c4a"/>
            <path id="Path_37" data-name="Path 37" d="M143.184,67.682c-.327-1.02,2.523-4.2,3.742-4.771s4.037-.762,9.355,3.122,6.48,6.345,6.664,8.406-2.249,4.518-3.746,4.677-4.155-4.709-7.755-7.468C148.067,69.06,143.51,68.7,143.184,67.682Z" fill="#fff"/>
          </g>
          <path id="Path_38" data-name="Path 38" d="M179.071,239a19.528,19.528,0,0,0-5-1.368c.953.085,1.684.089,2.589.236,1.006.163,2.7.714,2.866-.147s-.772-1.945-2.244-2.806a12.107,12.107,0,0,0-4-1.4,2.326,2.326,0,0,0-2.646,1.547,27.162,27.162,0,0,0-1.8,8.194c-.128,3.042,1.053,3.272,2.349,4.105,1.625,1.044,5.312-.02,5.589-1.437s-2.532-.26-4.4-1.53c1.383.937,5.629.272,6.321-1.311.365-.834-.529-1.018-1.005-1.056-1.423-.115-2.951.195-4.252-.611,1.152.214,4.392.44,5.486-.26A1.289,1.289,0,0,0,179.071,239Z" fill="#edbaa3"/>
        </g>
        <g id="Group_15" data-name="Group 15">
          <g id="Group_13" data-name="Group 13">
            <path id="Path_39" data-name="Path 39" d="M227.821,57.024a19.908,19.908,0,0,1-4.439-7.629,16.251,16.251,0,0,1,10.867,6.359c.955,1.317,1.479,3.585-.739,3.971C231.6,60.057,229.086,58.252,227.821,57.024Z" fill="#a0d9c8"/>
            <path id="Path_40" data-name="Path 40" d="M227.474,59.427A8.343,8.343,0,0,0,222.84,62.2a13.175,13.175,0,0,0-2.393,4.485,23.216,23.216,0,0,0,7.809-.739c2.042-.693,4.182-2.3,4.437-4.3C232.979,59.4,229.456,59.032,227.474,59.427Z" fill="#a0d9c8"/>
            <path id="Path_41" data-name="Path 41" d="M272.57,38.122a19.906,19.906,0,0,1,8.132,3.432A16.257,16.257,0,0,1,268.194,43c-1.555-.479-3.336-1.977-1.8-3.618C267.728,37.966,270.821,37.9,272.57,38.122Z" fill="#a0d9c8"/>
            <path id="Path_42" data-name="Path 42" d="M271.768,38.09a8.338,8.338,0,0,0,2.04-5,13.14,13.14,0,0,0-.781-5.023,23.232,23.232,0,0,0-5.8,5.283c-1.216,1.78-1.96,4.351-.962,6.1C267.385,41.422,270.421,39.6,271.768,38.09Z" fill="#a0d9c8"/>
            <path id="Path_43" data-name="Path 43" d="M264.491,34.908a8.338,8.338,0,0,0-2.74-4.65,13.142,13.142,0,0,0-4.469-2.422,23.2,23.2,0,0,0,.689,7.814c.679,2.046,2.274,4.2,4.273,4.463C264.486,40.414,264.873,36.893,264.491,34.908Z" fill="#a0d9c8"/>
            <path id="Path_44" data-name="Path 44" d="M253.712,34.27a8.345,8.345,0,0,0-.73-5.349,13.146,13.146,0,0,0-3.187-3.96,23.2,23.2,0,0,0-2.383,7.473c-.164,2.15.476,4.749,2.216,5.768C251.58,39.346,253.3,36.247,253.712,34.27Z" fill="#a0d9c8"/>
            <path id="Path_45" data-name="Path 45" d="M245.935,36.109a9.492,9.492,0,0,0-10.2-6.1,17.045,17.045,0,0,0,3.293,7.923,8.226,8.226,0,0,0,3.1,2.672C245.715,42.189,247.07,39.167,245.935,36.109Z" fill="#a0d9c8"/>
            <path id="Path_46" data-name="Path 46" d="M240.291,36.464a9.49,9.49,0,0,0-11.507,2.972,17.043,17.043,0,0,0,7.951,3.224,8.215,8.215,0,0,0,4.077-.325C244.462,40.893,243.264,37.805,240.291,36.464Z" fill="#a0d9c8"/>
            <path id="Path_47" data-name="Path 47" d="M233.362,72.03a9.49,9.49,0,0,0-6.876,9.692,17.038,17.038,0,0,0,8.155-2.664,8.224,8.224,0,0,0,2.906-2.877C239.407,72.725,236.5,71.137,233.362,72.03Z" fill="#a0d9c8"/>
            <path id="Path_48" data-name="Path 48" d="M230.5,65.493a8.8,8.8,0,0,0-3.58,4.691.744.744,0,0,0,.883,1.148,13.42,13.42,0,0,0,7.134-3.273C238.714,64.683,232.853,64.081,230.5,65.493Z" fill="#a0d9c8"/>
            <path id="Path_49" data-name="Path 49" d="M242.367,84.1a8.8,8.8,0,0,0,5.313,2.568c.342.047.756.051.955-.231a.971.971,0,0,0-.007-.865,13.429,13.429,0,0,0-4.636-6.334C239.926,76.21,240.511,82.073,242.367,84.1Z" fill="#a0d9c8"/>
            <path id="Path_50" data-name="Path 50" d="M232.156,65.012a2.885,2.885,0,1,0,4.114,1.654,6.573,6.573,0,0,0,2.24,2.669,2.263,2.263,0,0,0,3.084-.649,2.743,2.743,0,0,0,.005-1.963,8.146,8.146,0,0,0-2.246-3.644,6.535,6.535,0,0,0,3.431.565,2.254,2.254,0,0,0,1.906-2.5,2.818,2.818,0,0,0-2.242-1.7,6.589,6.589,0,0,0-4.935.264,5.732,5.732,0,0,0,.748-4.346,2.427,2.427,0,0,0-1.311-1.9,2.081,2.081,0,0,0-2.375,1.08A6.081,6.081,0,0,0,234,57.3a7.159,7.159,0,0,0-1.864-2.161,2.164,2.164,0,0,0-3.321,2.684,6.791,6.791,0,0,0,1.929,2.417,3.45,3.45,0,0,0-3.578,1.677c-.592,1.18.389,2.659,1.638,3.085A5.19,5.19,0,0,0,232.156,65.012Z" fill="#b35f83"/>
            <path id="Path_51" data-name="Path 51" d="M241.182,76.769a1.511,1.511,0,0,0,.914-.915,3.843,3.843,0,0,0,.21-1.315,1.99,1.99,0,0,0-.462-1.6,1.609,1.609,0,0,0-1.835.036,2.908,2.908,0,0,0-1.321,2.663,5.256,5.256,0,0,0-2.009-3.44,2.137,2.137,0,0,0-2.371-.378,2.036,2.036,0,0,0-.731,1.781,4.024,4.024,0,0,0,1.785,3.2,4.991,4.991,0,0,0-4-.875c-.789.171-1.633.672-1.712,1.475-.076.781.606,1.424,1.295,1.8a6.924,6.924,0,0,0,3.462.851,7.417,7.417,0,0,0-3.276,1.189,2.833,2.833,0,0,0-1.162,1.282,1.3,1.3,0,0,0,.443,1.556,1.824,1.824,0,0,0,1.212.1,10.159,10.159,0,0,0,4.285-1.4,6.7,6.7,0,0,0,1.458,4.491c.438.545,1.2,1.049,1.786.666a1.507,1.507,0,0,0,.525-1.073,10.322,10.322,0,0,0-.145-4c.892,1.074,2.05,2.181,3.443,2.089a1.44,1.44,0,0,0,1.338-.907,1.764,1.764,0,0,0-.21-1.2,7.162,7.162,0,0,0-2.347-2.795,4.75,4.75,0,0,0,3.451-1.481,1.412,1.412,0,0,0,.516-1.5,1.468,1.468,0,0,0-1.014-.677A5.549,5.549,0,0,0,241.182,76.769Z" fill="#b35f83"/>
            <path id="Path_52" data-name="Path 52" d="M268.684,34.508a1.51,1.51,0,0,0,.913-.915,3.8,3.8,0,0,0,.21-1.315,1.988,1.988,0,0,0-.462-1.6,1.607,1.607,0,0,0-1.834.036,2.91,2.91,0,0,0-1.321,2.664,5.257,5.257,0,0,0-2.01-3.441,2.137,2.137,0,0,0-2.371-.378,2.035,2.035,0,0,0-.73,1.781,4.02,4.02,0,0,0,1.785,3.2,4.993,4.993,0,0,0-4-.875c-.788.171-1.632.673-1.711,1.475-.077.781.606,1.424,1.294,1.8a6.929,6.929,0,0,0,3.462.851,7.421,7.421,0,0,0-3.276,1.189,2.844,2.844,0,0,0-1.162,1.282,1.3,1.3,0,0,0,.443,1.556,1.827,1.827,0,0,0,1.213.1,10.159,10.159,0,0,0,4.285-1.4,6.7,6.7,0,0,0,1.457,4.492c.439.544,1.2,1.048,1.786.665a1.5,1.5,0,0,0,.526-1.073,10.335,10.335,0,0,0-.145-4c.892,1.073,2.049,2.18,3.442,2.088a1.441,1.441,0,0,0,1.339-.907,1.771,1.771,0,0,0-.21-1.2,7.165,7.165,0,0,0-2.348-2.795,4.75,4.75,0,0,0,3.451-1.481,1.411,1.411,0,0,0,.517-1.5,1.468,1.468,0,0,0-1.014-.677A5.549,5.549,0,0,0,268.684,34.508Z" fill="#b35f83"/>
            <path id="Path_53" data-name="Path 53" d="M243.566,34.128a4.224,4.224,0,0,1-.606-3.095c.093-.475.347-1,.824-1.086a1.2,1.2,0,0,1,.942.366,3.439,3.439,0,0,1,1.218,3.413l.683-1.545a4.485,4.485,0,0,1,1.05-1.66A1.534,1.534,0,0,1,249.5,30.3a2.031,2.031,0,0,1,.492,2.069,7.215,7.215,0,0,1-1,2.6,5.78,5.78,0,0,1,4.12-1.474,1.226,1.226,0,0,1,1.025.44c.266.433-.025.987-.337,1.388a10.271,10.271,0,0,1-3.639,2.772,8.348,8.348,0,0,1,2.7,1.777,2.1,2.1,0,0,1,.738,1.29,1.81,1.81,0,0,1-1.184,1.6,3.988,3.988,0,0,1-4.681-1.624,19.715,19.715,0,0,1-.992,2.973,4.3,4.3,0,0,1-.994,1.575,1.714,1.714,0,0,1-1.734.405,2.237,2.237,0,0,1-1.061-2.132,6.922,6.922,0,0,1,1.657-4.4,6.531,6.531,0,0,1-5.315,1.207,1.418,1.418,0,0,1-1.111-.733c-.214-.587.314-1.17.822-1.535a10.889,10.889,0,0,1,4.847-1.937,4.334,4.334,0,0,1-4.154-1.4c-.311-.41-.537-1.024-.193-1.408a1.16,1.16,0,0,1,.605-.3A5.516,5.516,0,0,1,243.566,34.128Z" fill="#b35f83"/>
          </g>
          <path id="Path_54" data-name="Path 54" d="M272.416,70.14c-.03.05-.07.09-.1.14-7.46,9.94-19.05,12.42-24.64,12.42s-13.88-.62-16.57-7.45c-1.81-4.61,1.83-7.61,4.21-10.22,1.15-1.26,2-2.44,1.8-3.65a2.815,2.815,0,0,0-.44-1.13c-1.64-2.55-7.05-2.74-8.88-8.6-2.07-6.63,4.56-15.95,13.46-15.74,3.36.08,5.28,1.02,6.45,2.15,1.93,1.84,1.84,4.19,2.87,4.06,1.35-.16-1.45-3.66.21-6.29a4.531,4.531,0,0,1,1.86-1.58c4.97-2.48,11.18-5.17,15.73,2.28,2.9,4.74,6.71,13.06,7.19,21.04C275.846,62.11,275.056,66.54,272.416,70.14Z" fill="#b35f83" opacity="0.3"/>
          <path id="Path_55" data-name="Path 55" d="M297.576,68.83c-1.23,3.95-4.43,3.06-6.18,3.29-.91.12-1.43.54-1.07,2.1a14.964,14.964,0,0,1,.26,1.49c.53,4.1-.81,7.95-7.09,3.89a51.38,51.38,0,0,1-11.08-9.46c-2.5-3.05-3.79-6.08-2.38-8.35a10.9,10.9,0,0,1,5.53-4.22c4.41-1.74,9.89-2.08,13.31-3.85,5.08-2.64,6.97,2.09,6.84,4.62,0,.05-.01.1-.01.14-.09,1.11.65,2.09,1.31,3.38A8.266,8.266,0,0,1,297.576,68.83Z" fill="#b35f83" opacity="0.3"/>
          <path id="Path_56" data-name="Path 56" d="M267.653,56.887a7.619,7.619,0,0,1,8.376-1.106A1.6,1.6,0,0,1,277,56.9a1.885,1.885,0,0,1-.4,1.1,17.8,17.8,0,0,0-2.426,11.705c.348,2.45-.884,4.527-3.686,4.2-1.937-.229-2.633-1.727-3.5-3.282C264.526,66.233,263.327,60.66,267.653,56.887Z" fill="#b35f83"/>
          <path id="Path_57" data-name="Path 57" d="M257.636,65.43a4.669,4.669,0,0,1-1.62.61,42.586,42.586,0,0,1-20.7-1.01c1.15-1.26,2-2.44,1.8-3.65a2.815,2.815,0,0,0-.44-1.13c.44,0,.88.04,1.31.08a141.29,141.29,0,0,1,18.29,3.06,2.922,2.922,0,0,1,1.74.84A.883.883,0,0,1,257.636,65.43Z" fill="#e4a791" opacity="0.15"/>
          <path id="Path_58" data-name="Path 58" d="M266.236,54.92c-1.52,1.25-9.18-3.82-12.6-7.85a51.223,51.223,0,0,1-5.93-9.01c1.93,1.84,1.84,4.19,2.87,4.06,1.35-.16-1.45-3.66.21-6.29,2.56,3.52,5.32,6.85,8.07,10.17C261.316,48.97,267.756,53.67,266.236,54.92Z" fill="#e4a791" opacity="0.15"/>
          <path id="Path_59" data-name="Path 59" d="M290.326,74.22a14.964,14.964,0,0,1,.26,1.49q-6.495-2.46-12.95-5.02a4.691,4.691,0,0,1-1.44-.79,1.548,1.548,0,0,1-.53-1.48c.28-1.03,1.69-1.13,2.75-.98,4.34.66,8.76,2.83,12.98,4.68C290.486,72.24,289.966,72.66,290.326,74.22Z" fill="#e4a791" opacity="0.15"/>
          <path id="Path_60" data-name="Path 60" d="M297.016,61.86a47.878,47.878,0,0,1-14.04-.16c-1.69-.28-4.661-.741-4.62-1.98s11.57-.92,17.36-1.38c0,.05-.01.1-.01.14C295.616,59.59,296.356,60.57,297.016,61.86Z" fill="#e4a791" opacity="0.15"/>
          <g id="Group_14" data-name="Group 14">
            <path id="Path_61" data-name="Path 61" d="M192.845,50.5a3.227,3.227,0,0,1-.732-2.09,1.621,1.621,0,0,1,1.392-1.532,2.051,2.051,0,0,1,1.726,1.277,9.878,9.878,0,0,0,1.055,2c.582.67,4.451,2.715,1.493,3C195.933,53.33,193.88,51.922,192.845,50.5Z" fill="#b35f83"/>
            <path id="Path_62" data-name="Path 62" d="M194.562,37.229a6.338,6.338,0,0,1,5.323,2.092c.42.479.77,1.195.412,1.722a1.55,1.55,0,0,1-1.539.408c-1.53-.214-2.98-.805-4.489-1.136a11.007,11.007,0,0,0-2.758-.167c-.82.023-1.448.253-.994-.825C191.035,38.094,193.388,37.349,194.562,37.229Z" fill="#b35f83"/>
            <path id="Path_63" data-name="Path 63" d="M239.687,22.507a6.339,6.339,0,0,1-5.7.416c-.586-.251-1.212-.745-1.117-1.375.083-.555.678-.864,1.212-1.034,1.472-.468,3.035-.563,4.538-.917a10.97,10.97,0,0,0,2.559-1.042c.729-.375,1.2-.854,1.253.314C242.494,20.2,240.694,21.891,239.687,22.507Z" fill="#b35f83"/>
          </g>
        </g>
        <g id="Group_27" data-name="Group 27">
          <g id="Group_16" data-name="Group 16">
            <path id="Path_64" data-name="Path 64" d="M347.214,372.349c20.836,13.989,43.084-18.675,52.553-32.185,8.638-12.236,7.23-17.333-5.307-23.34-1.568-.769-3.3-1.579-5.221-2.431-17.836-7.931-30.431-30.442-13.2-19.428a15.2,15.2,0,0,0,11.276,1.783l.011-.006c14.013-3.646,22.063-23.373,2.38-35.688-12.741-7.586-39.116-32.465-54.456-61.668-16.736-28.367-22.439-61.058-26.1-64.959-13.045-15.374-19.744,2.017-29.333,18.456-4.588,5.988-15.409,59.518,1.837,111.629C295.039,316.8,336.489,367.662,347.214,372.349Z" fill="#fff" opacity="0.39"/>
            <path id="Path_65" data-name="Path 65" d="M294.626,158.4c.068,53.851,28.114,105.613,69.835,140.939,9.042,7.807,19.588,15.231,30,17.489-1.568-.769-3.3-1.579-5.221-2.431-17.836-7.931-30.431-30.442-13.2-19.428a15.2,15.2,0,0,0,11.276,1.783,216.427,216.427,0,0,1-86.859-140.183c-.394-2.374-1.108-5.274-2.791-5.46C295.509,150.849,294.6,155.162,294.626,158.4Z" fill="#fff" opacity="0.39"/>
          </g>
          <path id="Path_66" data-name="Path 66" d="M272.035,192.209c6.714-1.3,20.01-3.062,28.3-2.128,7.321.825,10.609,10.906,1.527,29.652-8.834,18.233-44.505,12.237-47.416-.68S265.323,193.508,272.035,192.209Z" fill="#edbaa3"/>
          <g id="Group_22" data-name="Group 22">
            <path id="Path_67" data-name="Path 67" d="M321.468,141.161c6.42-10.006-17.174-32.838-22.865-21.506C294.442,129.484,314.978,149.408,321.468,141.161Z" fill="#ae6c53"/>
            <g id="Group_17" data-name="Group 17">
              <rect id="Rectangle_2" data-name="Rectangle 2" width="9.421" height="13.045" transform="translate(288.288 190.782) rotate(167.635)" fill="#edbaa3"/>
              <path id="Path_68" data-name="Path 68" d="M283.723,184.109c.9-.462,1.786-.961,2.679-1.438l.1-.051-1-4.581-9.2,2.018,1.312,5.985A17.273,17.273,0,0,0,283.723,184.109Z" fill="#a34b5f" opacity="0.4"/>
            </g>
            <path id="Path_69" data-name="Path 69" d="M254.878,155.031c-.14,2.351-.207,4.438-.2,6.314.028,6.774.961,10.709,2.368,13.5a11.374,11.374,0,0,0,3.047,3.713c3.368,2.745,8.393,4.234,13.513,4.627,6.058.478,12.232-.561,15.928-2.824a32.34,32.34,0,0,0,6.858-5.74c7.42-8.079,12.131-20.323,10.741-31.468-2.018-16.251-21.34-25.558-35.214-18.329C258.6,131.349,255.534,144.21,254.878,155.031Z" fill="#edbaa3"/>
            <g id="Group_18" data-name="Group 18">
              <path id="Path_70" data-name="Path 70" d="M273.608,183.188c6.058.478,12.232-.561,15.928-2.824a32.34,32.34,0,0,0,6.858-5.74c.334-2.528-.822-5.321-3.194-6.18a7.7,7.7,0,0,0-5.241.5,26.523,26.523,0,0,0-13,10.672A8.429,8.429,0,0,0,273.608,183.188Z" fill="#dd6b7d" opacity="0.2" style="mix-blend-mode: multiply;isolation: isolate"/>
              <path id="Path_71" data-name="Path 71" d="M254.68,161.345c.028,6.774.961,10.709,2.368,13.5a11.374,11.374,0,0,0,3.047,3.713,18.2,18.2,0,0,0,.148-2.5,22.261,22.261,0,0,0-4.523-13.669A4.236,4.236,0,0,0,254.68,161.345Z" fill="#dd6b7d" opacity="0.2" style="mix-blend-mode: multiply;isolation: isolate"/>
            </g>
            <path id="Path_79" data-name="Path 79" d="M296.386,120.185c-8.408-2.741-13.944-1.828-20.82-.74-37.834,11.714-19.971,31.068,5.446,13.04,3.18,19.165,12.726,22.438,14.193,23.519s-3.387,3.049-3.755,6.027a4.344,4.344,0,0,0,1.122,2.733c.521.643,1.748,1.145-1.407,3.227-2.058,1.357-2.427,2.893-1.484,4.653.879,1.64,3.176,2.382,5.906,1.336-3.11.093-3.983-1.2-3.591-2.536s2.019-.974,3.837-2.295c1.716-1.249,2.415-3.117,2.021-4.207-1.248-3.457,2.185-3.771,5.424-3.34C324.64,161.713,318.993,126.944,296.386,120.185Z" fill="#c17c5f"/>
            <g id="Group_21" data-name="Group 21">
              <path id="Path_80" data-name="Path 80" d="M297.931,168.1c-.123,2.487,2.913,4.414,6.355,3.291s7.657-6.585,6.884-10.585-6.08-4.113-9.353-.757A14.285,14.285,0,0,0,297.931,168.1Z" fill="#edbaa3"/>
              <path id="Path_81" data-name="Path 81" d="M297.815,170.267a2.125,2.125,0,1,0,2.707-1.3A2.125,2.125,0,0,0,297.815,170.267Z" fill="#fff"/>
              <path id="Path_82" data-name="Path 82" d="M308.489,162.416a.245.245,0,0,0,.048-.4,2.737,2.737,0,0,0-2.108-.009,7.4,7.4,0,0,0-2.107.922,7.492,7.492,0,0,0-3.027,3.719.25.25,0,0,0,.444.227,9.233,9.233,0,0,1,2.944-3.205c.167-.1.343-.184.515-.274.025.086.061.17.088.252.048.148.1.293.148.442a6.4,6.4,0,0,1,.207.931c.1.643.057,1.319.205,1.949a.149.149,0,0,0,.276.05,3.419,3.419,0,0,0,.214-2.173,6.217,6.217,0,0,0-.267-1.046,3.336,3.336,0,0,0-.2-.473c-.036-.068-.072-.137-.111-.2a6.5,6.5,0,0,1,.783-.276A8.827,8.827,0,0,0,308.489,162.416Z" fill="#a34b5f" opacity="0.5"/>
            </g>
          </g>
          <g id="Group_23" data-name="Group 23">
            <path id="Path_83" data-name="Path 83" d="M393.875,441.265c-6.42,2.61-38.53,19.74-80.87,21.88s-71.35-9.51-75.16-12.37c-2.16-1.62-4.94-8.7-6.1-24.86-.05-.72-.1-1.45-.15-2.21a327.633,327.633,0,0,1,.24-36.7c.02-.49.05-.99.08-1.49q.36-6.45.94-13.7c.58-7.18,1.42-14.62,2.45-22.14.06-.48.13-.97.2-1.46,2.12-15.18,5-30.66,8-45.01.09-.42.17-.83.26-1.24,2.4-11.4,4.87-22.06,7.09-31.26.08-.33.16-.65.23-.97,3.99-16.48,7.14-28.14,7.55-30.74a2.323,2.323,0,0,0,.05-.3,1.476,1.476,0,0,0,.01-.21c.28-4.78-6.11-12.68-8.1-20.08-2.02-7.51,6.52-14.98,9.85-14.51s4.99,6.42,4.99,6.42,11.66-7.61,16.65-6.66,18.08,17.37,18.32,19.03c.22,1.62-4.49,10.66-5.62,17.5-.03.2-.06.39-.09.58-.02.13-.03.25-.04.38-.36,4.93,5.3,11.49,13.17,23.92h.01c.3.48.61.98.92,1.48,2.88,4.61,6.02,9.98,9.25,16.32,2.68,5.27,5.55,11.55,8.57,18.56.18.41.36.83.54,1.25,5.31,12.37,11.08,26.9,17.15,42.03.15.38.3.76.46,1.14,3.93,9.81,7.99,19.87,12.12,29.73.32.76.63,1.52.95,2.27,2.65,6.28,5.32,12.48,8.01,18.47a145.686,145.686,0,0,0,15.88,27.73c.25.33.5.66.74.98C392.175,437.775,398.155,439.515,393.875,441.265Z" fill="#fff"/>
            <path id="Path_84" data-name="Path 84" d="M280.747,206.08c.634-1.81,3.988-10.661,10.831-16.6a.332.332,0,0,1,.217-.077h1.986c.237,0,.378.214.24.37-1.6,1.813-8.488,9.925-9.315,16.1a.26.26,0,0,1-.252.2l-3.4.291C280.854,206.392,280.69,206.241,280.747,206.08Z" fill="#fff"/>
            <path id="Path_85" data-name="Path 85" d="M257.727,205.722a46.784,46.784,0,0,1,12.61-13.5.836.836,0,0,1,.381-.162c.186-.022,2.152-.326,2.152-.326.215,0,.342.157.19.288-1.75,1.511-9.939,8.378-11.7,13.528a.3.3,0,0,1-.263.17l-3.134.243C257.774,205.981,257.65,205.856,257.727,205.722Z" fill="#fff"/>
          </g>
          <g id="Group_24" data-name="Group 24" opacity="0.47">
            <path id="Path_86" data-name="Path 86" d="M294.785,240.185c-.03.2-.06.39-.09.58-.02.13-.03.25-.04.38q-1.485.195-3,.33a96.636,96.636,0,0,1-33.02-2.48,2.323,2.323,0,0,0,.05-.3,1.476,1.476,0,0,0,.01-.21q3.84.795,7.71,1.38a106.545,106.545,0,0,0,17.58,1.12C287.605,240.915,291.2,240.585,294.785,240.185Z" fill="#f3deea"/>
            <path id="Path_87" data-name="Path 87" d="M308.755,266.545a8.4,8.4,0,0,1-1.63-.53,12.247,12.247,0,0,1-3.81-3.02c-1.86-1.97-4.23-5.2-7.36-4.13-1.63.57-2.7,2.15-3.46,3.61-.81,1.56-1.34,3.24-2.2,4.77a7.328,7.328,0,0,1-3.57,3.36,6.626,6.626,0,0,1-5.16-.39c-3.75-1.7-6.22-5.23-9.81-7.18a9.425,9.425,0,0,0-5.75-1.24,6.51,6.51,0,0,0-4.35,2.61c-1.78,2.27-2.84,5.51-5.63,6.78a5.338,5.338,0,0,1-5.17-.48c.08-.33.16-.65.23-.97a4.583,4.583,0,0,0,4.21.7,6.7,6.7,0,0,0,3.06-2.78c1.66-2.48,2.94-5.39,5.95-6.48,3.6-1.32,7.4.29,10.27,2.47,1.51,1.14,2.86,2.47,4.36,3.64a11.092,11.092,0,0,0,5.04,2.55c3.96.55,5.59-3.44,6.84-6.42,1.16-2.74,3.12-5.97,6.5-5.89,2.95.06,4.96,2.7,6.81,4.65a10.965,10.965,0,0,0,3.7,2.89h.01C308.135,265.545,308.445,266.045,308.755,266.545Z" fill="#f3deea"/>
            <path id="Path_88" data-name="Path 88" d="M327.115,302.675a8.37,8.37,0,0,1-5.47-.6,21.248,21.248,0,0,1-6.31-5.01c-1.82-1.88-3.75-3.87-6.3-4.72-2.28-.77-4.91-.6-6.53,1.37-1.4,1.71-1.75,4.09-2.35,6.16a11.406,11.406,0,0,1-3.07,5.42,11.569,11.569,0,0,1-11.36,2.51c-4.95-1.75-6.92-7.01-10.84-10.05-1.92-1.49-4.53-2.63-6.94-1.69-2.18.86-3.45,3.06-4.73,4.88a13.735,13.735,0,0,1-4.74,4.48,13.469,13.469,0,0,1-6.25,1.51,11.964,11.964,0,0,1-8.72-3.73c.09-.42.17-.83.26-1.24a10.21,10.21,0,0,0,1.21,1.25,11.677,11.677,0,0,0,11.91,1.71,11.331,11.331,0,0,0,4.93-3.97c1.26-1.74,2.34-3.69,4.07-5.03,4.23-3.26,9.31-.05,12.25,3.35a48.983,48.983,0,0,0,4.86,5.51,9.239,9.239,0,0,0,5.66,2.35,10.038,10.038,0,0,0,9.6-5.6c1.65-3.75,1.51-9.17,6.22-10.62a8.9,8.9,0,0,1,6.63.93c2.27,1.21,4.04,3.18,5.82,4.99,1.83,1.86,3.82,3.72,6.39,4.48a6.249,6.249,0,0,0,3.26.11C326.755,301.835,326.935,302.255,327.115,302.675Z" fill="#f3deea"/>
            <path id="Path_89" data-name="Path 89" d="M382.425,425.025c-5.28,3.67-12.77,4.21-18.3.81-3.94-2.43-6.54-6.55-10.64-8.75a8.58,8.58,0,0,0-6.68-.95,8.01,8.01,0,0,0-4.08,3.58c-1.99,3.19-2.96,6.96-5.57,9.76a15.35,15.35,0,0,1-21.03,1.17c-3.76-2.88-7.01-6.82-11.74-8.13-7.27-2.02-11.37,5.19-15.15,9.99-1.77,2.25-3.8,4.49-6.52,5.57-3.66,1.45-7.46.09-10.36-2.32-3.5-2.91-5.52-7.09-8.65-10.34-2.74-2.84-7.52-5.27-11.3-2.85-2.95,1.88-3.35,5.93-5.04,8.73a6.13,6.13,0,0,1-3.41,2.86,7.064,7.064,0,0,1-5.81-1.29,22.343,22.343,0,0,1-6.4-6.95c-.05-.72-.1-1.45-.15-2.21a28.384,28.384,0,0,0,3,4.39c2.29,2.75,7.04,7.46,10.71,4.11,2.38-2.17,2.68-5.85,4.44-8.45,2.12-3.13,5.91-3.81,9.36-2.66,4.08,1.36,6.67,4.87,9.1,8.21,2.52,3.44,5.53,7.43,10.03,8.18,6.45,1.07,10.24-6.02,13.6-10.24a17.093,17.093,0,0,1,6.39-5.49c3.89-1.64,8.02-.25,11.35,2.02,3.74,2.56,6.68,6.27,10.86,8.19a14.3,14.3,0,0,0,15.66-3.09,17.06,17.06,0,0,0,3.01-4.61c1.5-3.08,2.79-6.73,5.88-8.59,3.72-2.24,8.23-.58,11.39,1.88,3.46,2.68,6.11,6.48,10.25,8.2a16.22,16.22,0,0,0,15.06-1.71C381.935,424.375,382.185,424.7,382.425,425.025Z" fill="#f3deea"/>
            <path id="Path_90" data-name="Path 90" d="M357.8,377.845a16.241,16.241,0,0,0-5.74-3.42,6.616,6.616,0,0,0-5.47.68,13.848,13.848,0,0,0-3.78,4.03c-2.03,2.95-3.93,5.97-6.63,8.38a12.939,12.939,0,0,1-9.18,3.72c-3.78-.19-7.03-2.32-9.87-4.64-3.18-2.59-6.02-5.6-9.79-7.36a10.8,10.8,0,0,0-5.72-1.13,8.825,8.825,0,0,0-4.97,2.38c-2.65,2.42-4.16,5.73-6.28,8.58-2.01,2.71-4.76,5.42-8.29,5.79-3.64.38-6.57-2.09-8.55-4.89-2.24-3.18-3.39-7.15-6.29-9.86a10.149,10.149,0,0,0-9.79-2.12c-3.48,1.05-5.43,3.98-7.41,6.8-1.83,2.62-3.95,5.25-7.21,6.03a11.312,11.312,0,0,1-9.03-2.12,13.469,13.469,0,0,1-1.96-1.69c.02-.49.05-.99.08-1.49a12.243,12.243,0,0,0,7.75,4.39c3.47.4,6.18-1.43,8.24-4.07,1.99-2.55,3.52-5.54,6.21-7.47a11.36,11.36,0,0,1,9.31-1.58c3.5.91,5.86,3.46,7.62,6.5,1.83,3.16,3.22,6.85,6.28,9.06a6.717,6.717,0,0,0,5.02,1.31,9.265,9.265,0,0,0,4.59-2.47c4.87-4.46,6.81-13.16,14.27-14.22,3.8-.54,7.47,1.31,10.45,3.48,3.08,2.24,5.67,5.09,8.86,7.18,3.07,2.02,6.65,3.11,10.24,1.86,3.33-1.16,5.94-3.88,8.02-6.62s3.63-6.04,6.36-8.21a7.9,7.9,0,0,1,4.64-1.76,10.344,10.344,0,0,1,5.32,1.54,16.935,16.935,0,0,1,1.75,1.14C357.165,376.335,357.475,377.1,357.8,377.845Z" fill="#f3deea"/>
            <path id="Path_91" data-name="Path 91" d="M344.725,345.845c-.33.21-.66.41-1.01.6a13.569,13.569,0,0,1-8.22,1.52,16.749,16.749,0,0,1-8.16-4.04c-4.96-4.12-9.06-10.43-15.89-11.54a9.074,9.074,0,0,0-8.13,2.93,30.955,30.955,0,0,0-4.67,7.35c-2.46,4.75-6.82,11.24-13.11,9.89-5.42-1.17-7.18-7.43-10.24-11.27a13.129,13.129,0,0,0-14.48-3.85,12.282,12.282,0,0,0-6.07,4.75c-1.57,2.23-2.73,4.71-4.33,6.91a10,10,0,0,1-6.12,4.35,9.457,9.457,0,0,1-7.79-2.54,11.564,11.564,0,0,1-1.2-1.23c.06-.48.13-.97.2-1.46a10.166,10.166,0,0,0,6.04,4.14c5.92,1.19,8.73-5.1,11.24-9.19a16.127,16.127,0,0,1,5.12-5.58,14.315,14.315,0,0,1,7.23-2.03,14.557,14.557,0,0,1,7.44,1.88,15.631,15.631,0,0,1,5.21,5.45c1.38,2.18,2.56,4.59,4.39,6.44a6.754,6.754,0,0,0,6.99,1.91c2.82-.92,5-3.38,6.58-5.78,1.6-2.44,2.7-5.16,4.24-7.64a14.724,14.724,0,0,1,5.55-5.66,10.647,10.647,0,0,1,8.72-.21,24.587,24.587,0,0,1,8.08,5.56,72.568,72.568,0,0,0,6.79,6.33,13.783,13.783,0,0,0,8.13,3.06,12.5,12.5,0,0,0,7.01-2.19C344.415,345.085,344.565,345.465,344.725,345.845Z" fill="#f3deea"/>
          </g>
          <g id="Group_26" data-name="Group 26">
            <path id="Path_92" data-name="Path 92" d="M315.264,92.741a50.275,50.275,0,0,0-6.888-9.774c-2.064-2.21-2.919-2.007-1.864-.11,1,1.8,2.435,3.657,2.1,3.887-.172.119-.942-1.413-2.6-3.117-1.917-1.976-3.551-3.351-4.09-2.565s3.038,5.193,4,6.78c1.187,1.385-3.454-3.4-5.7-4.688-2.364-1.566-3.661-.787-1.187,1.594,2.422,2.446,4.158,4.362,4.426,5.228-.817-.3-1.513-.985-4.749-3.271-2.49-1.608-3.447-.474-1.447,1.534,2.429,2.4,6.522,5.53,5.989,6.551-.679.51-1.552-.485-4.7-.906-3.179-.4.3,1.674,2.9,3.277,2.753,1.614,4.924,4.35,6.7,5.852,2.409,2.011,3.1,3.411,5.777,1.89,1.559-.887,4.28-1.907,4.52-4.284C318.634,98.711,316.7,95.728,315.264,92.741Z" fill="#edbaa3"/>
            <path id="Path_93" data-name="Path 93" d="M310.765,100.691a14.035,14.035,0,0,1-1.234-4.478,12.714,12.714,0,0,1,0-2.267,7.638,7.638,0,0,0,.166-2.136.2.2,0,0,0-.339-.09,3.679,3.679,0,0,0-.633,2.151,11.544,11.544,0,0,0,.039,2.493,10.576,10.576,0,0,0,1.608,4.556A.227.227,0,0,0,310.765,100.691Z" fill="#a34b5f" opacity="0.5"/>
            <path id="Path_94" data-name="Path 94" d="M306.1,88.277l-.827-.866,2.874-1.653.669,1.142Z" fill="#e19d25"/>
            <path id="Path_95" data-name="Path 95" d="M294.551,204.381c1.5,3.631,4.026,6.77,6.744,7.076,2.636.3,8.249-6.576,10.652-10.078,5.631-8.206,17.851-21.27,21.968-47.487s-11.229-49.3-16.869-56.75c-.036-.055-6.418.042-7.964,5.054-1.022-.428,13.639,24.637,9.786,47.824s-16.524,36.067-20.387,39.191C293.028,193.62,293.056,200.754,294.551,204.381Z" fill="#edbaa3"/>
            <g id="Group_25" data-name="Group 25">
              <path id="Path_96" data-name="Path 96" d="M311.471,105.293a1.728,1.728,0,1,1-1.794-1.66A1.729,1.729,0,0,1,311.471,105.293Z" fill="#fff"/>
              <path id="Path_97" data-name="Path 97" d="M314.122,105.057a1.728,1.728,0,1,1-1.794-1.66A1.729,1.729,0,0,1,314.122,105.057Z" fill="#fff"/>
              <path id="Path_98" data-name="Path 98" d="M316.947,104.149a1.728,1.728,0,1,1-1.794-1.66A1.729,1.729,0,0,1,316.947,104.149Z" fill="#fff"/>
              <path id="Path_99" data-name="Path 99" d="M319.616,102.648a1.728,1.728,0,1,1-1.794-1.66A1.728,1.728,0,0,1,319.616,102.648Z" fill="#fff"/>
              <path id="Path_100" data-name="Path 100" d="M321.393,100.45a1.728,1.728,0,1,1-1.794-1.659A1.728,1.728,0,0,1,321.393,100.45Z" fill="#fff"/>
            </g>
          </g>
        </g>
        <path id="Path_101" data-name="Path 101" d="M291.264,234.641a26.865,26.865,0,0,1,6.258.438c-1.127-.26-1.968-.52-3.063-.7-1.219-.2-3.368-.26-3.237-1.183s1.623-1.666,3.639-2a16.66,16.66,0,0,1,5.128.044,2.721,2.721,0,0,1,2.454,2.5,25.286,25.286,0,0,1-1.029,8.848c-1,3.09-2.448,2.893-4.251,3.257-2.263.457-6.1-1.939-5.877-3.457s3.006.656,5.631.06c-1.943.436-6.571-1.763-6.766-3.6-.1-.966.993-.827,1.554-.693,1.678.4,3.317,1.262,5.117.926-1.4-.2-5.213-1.148-6.2-2.243A1.293,1.293,0,0,1,291.264,234.641Z" fill="#e4a791"/>
      </g>
      <g id="Group_39" data-name="Group 39">
        <g id="Group_29" data-name="Group 29">
          <path id="Path_102" data-name="Path 102" d="M371.589,274.349c13.858,1.365,28.176-4.165,38.578-12.505,11.283-8.919,18.678-20.648,24.346-32.334,3.243-6.67,5.88-13.59,9.092-20.231.227-.474.82-.266.657.238a164.543,164.543,0,0,1-7.716,18.989,119.5,119.5,0,0,1-10.263,18.032c-7.534,10.784-18.286,20.78-32.028,25.767a48.807,48.807,0,0,1-22.97,2.734C370.683,274.959,371.013,274.294,371.589,274.349Z" fill="#b35f83"/>
          <path id="Path_103" data-name="Path 103" d="M399.742,280.687c4.714.741,10.084-.136,15.28-1.193,5.212-1.04,10.55-2.293,15.18-1.955-6.946-6.458-18.83-8.45-30.579-7.612-3.139.313-9.26,1.151-8.771,4.713C391.27,277.836,395.975,280.135,399.742,280.687Z" fill="#b35f83"/>
          <path id="Path_104" data-name="Path 104" d="M400.669,268.075c1.919-3.333,1.895-6.894,1.474-10.189s-1.218-6.546-1.116-9.886c-3.31,3.632-7.09,7.123-9.649,11.381-2.163,3.663-3.453,8.506-1.335,12C392.6,275.572,398.61,271.81,400.669,268.075Z" fill="#b35f83"/>
          <path id="Path_105" data-name="Path 105" d="M422.519,262.755c4.229-.777,8.386-3.186,12.375-5.558,4.01-2.362,8.21-4.848,12.231-5.425-5.423-.674-10.842-1.6-16.644-.806-4.68.664-10.109,2.6-13.91,6.1C411.315,261.756,418.034,263.6,422.519,262.755Z" fill="#b35f83"/>
          <path id="Path_106" data-name="Path 106" d="M434.546,244.362c3.017-.994,5.833-3.064,8.536-5.162s5.474-4.318,8.434-5.527c-5.695-.816-12.051.349-17.967,2.721-2.382,1.011-6.588,3.357-6.2,6.453C427.661,245.57,432.239,245.162,434.546,244.362Z" fill="#b35f83"/>
          <path id="Path_107" data-name="Path 107" d="M445.082,226.138c2.378-2.052,3.978-5.01,5.489-7.876s3.122-5.88,5.462-7.92c-4.075,1.692-8.23,3.143-11.914,5.717-2.674,1.927-6.683,5.594-7.055,9.124C436.536,229.724,442.568,228.363,445.082,226.138Z" fill="#b35f83"/>
          <path id="Path_108" data-name="Path 108" d="M439.5,222.438a8.722,8.722,0,0,0-1.067-6.212,37.434,37.434,0,0,0-3.594-4.779,12.426,12.426,0,0,1-2.723-5.225c-.838,3.917-1.953,7.814-1.893,11.655a11.535,11.535,0,0,0,3.17,8.259C435.764,228.422,438.689,225.993,439.5,222.438Z" fill="#b35f83"/>
          <path id="Path_109" data-name="Path 109" d="M449.693,207.838c2.383-3.032,2.477-7.2,5.144-9.865-2.7,1.768-6.185,2.769-8.52,4.826-1.5,1.393-4.24,5.292-3.363,7.4C443.955,212.648,448.593,209.343,449.693,207.838Z" fill="#b35f83"/>
          <path id="Path_110" data-name="Path 110" d="M446.417,206.666c.3-2.658-1.4-4.763-2.964-6.642-1.567-1.9-3.157-4.05-2.73-6.519a18.758,18.758,0,0,0-1.511,12.523c.4,1.515,1.054,4.564,3.252,4.706C444.469,210.86,446.251,208.275,446.417,206.666Z" fill="#b35f83"/>
          <path id="Path_111" data-name="Path 111" d="M408.974,247.793c.072-2.992.38-6.034-.319-8.944s-1.926-4.614-3.355-5.367c3.627.549,7.5,3.274,10.121,6.057s7.09,12.377,2.427,18.074c-1.964,2.4-4.689,1.9-6.571-.346C409.115,254.688,408.9,251,408.974,247.793Z" fill="#b35f83"/>
          <path id="Path_112" data-name="Path 112" d="M430.285,238.457a8.373,8.373,0,0,0-1.517-5.27c-.984-1.583-2.209-3.014-3.092-4.655a13.145,13.145,0,0,1-1.024-9.82,34.71,34.71,0,0,0-3.8,10.914c-.478,3.842.308,8,2.894,10.883C426.153,243.192,429.831,242.244,430.285,238.457Z" fill="#b35f83"/>
        </g>
        <g id="Group_30" data-name="Group 30">
          <path id="Path_113" data-name="Path 113" d="M78.131,137.015c.493-.509,1.535.256,1.333.887a38.979,38.979,0,0,1-2.7,5.952q-1.521,2.949-2.946,5.954a131.559,131.559,0,0,0-5.079,12.326,142.212,142.212,0,0,0-6.524,25.724c-.786,5.047-1.285,10.165-2.015,15.222-.124.861-1.574.427-1.616-.4-.467-9.346,1.183-18.581,3.246-27.341a135.337,135.337,0,0,1,8.73-25.419c1.044-2.277,2.14-4.524,3.343-6.713A27.762,27.762,0,0,1,78.131,137.015Z" fill="#b35f83"/>
          <path id="Path_114" data-name="Path 114" d="M79.961,185.283c4.934-3.312,8.111-8.376,10.927-13.471-.318.576-7.2.914-8.266,1.18a38.406,38.406,0,0,0-8.272,3.09c-4.545,2.333-10.205,6.047-12.135,10.734C66.953,190.962,76.136,187.849,79.961,185.283Z" fill="#b35f83"/>
          <path id="Path_115" data-name="Path 115" d="M76.292,165.838a26.793,26.793,0,0,0,6.892-5.922,118.758,118.758,0,0,0,9.962-12.69c-.782,1.149-6.2,1.938-7.729,2.622a41.544,41.544,0,0,0-7.553,4.384c-4.339,3.179-8.973,7.523-10.844,12.57C69.648,168.647,74.015,167.078,76.292,165.838Z" fill="#b35f83"/>
          <path id="Path_116" data-name="Path 116" d="M51.283,181.374c-2.42-3.307-3.569-7.127-4.727-10.845s-2.434-7.542-5.036-10.739a29.873,29.873,0,0,1,15.207,10.668c2.657,3.606,5.826,9.945,4.931,14.046C60.5,189.793,54.081,185.2,51.283,181.374Z" fill="#b35f83"/>
          <path id="Path_117" data-name="Path 117" d="M65.324,150.158c-2.523-5.347-6.219-10.467-7.379-16.031a19.614,19.614,0,0,0-2.763,15.97c.708,2.93,5.5,14.446,9.874,14.589C70.431,164.862,66.7,153.079,65.324,150.158Z" fill="#b35f83"/>
          <path id="Path_118" data-name="Path 118" d="M74.654,144.9a17.907,17.907,0,0,1-4.244-17.465c1.619-5.631,5.47-10.165,9.342-14.483a33.415,33.415,0,0,1-1.738,25.162c-1.548,3.127-3.961,5.691,1.47,6.528,2.92.45,7.352-1.373,9.236-3.062,3.413-3.061,5.389-7.286,7.3-11.423-.542,1.172-8.565,2.828-10.163,3.662-2.9,1.514-6.562,3.495-8.5,6.059a5.717,5.717,0,0,0-1.331,2.767" fill="#b35f83"/>
        </g>
        <g id="Group_31" data-name="Group 31">
          <path id="Path_119" data-name="Path 119" d="M103.646,353.607a14.615,14.615,0,0,0-5.6-2.21,5.98,5.98,0,0,0-5.449,1.988c-1.852,2.434-.761,6.069,1.251,8.373s4.773,3.837,6.869,6.064a14.17,14.17,0,0,0-10.326-1.154c-3.382,1.072-6.232,4.139-6.4,7.684a9.6,9.6,0,0,0,3.479,7.368,21.8,21.8,0,0,0,7.384,3.943c6.4,2.254,29.639,8.648,32.638-1.277,1.522-5.035-5.1-13.078-7.938-16.734A56.7,56.7,0,0,0,103.646,353.607Z" fill="#b35f83"/>
          <path id="Path_120" data-name="Path 120" d="M114.143,317.412c-.506-1.619-1.274-3.372-2.845-4.012-2.271-.925-4.843,1.225-5.308,3.633s.505,4.837,1.456,7.1c-1.133-2.815-2.415-5.816-4.988-7.426s-6.786-.846-7.518,2.1c-.392,1.578.305,3.207,1.056,4.649,1.829,3.514,13.332,20.888,17.807,17.8C118.5,338.022,115.474,321.673,114.143,317.412Z" fill="#b35f83"/>
          <path id="Path_121" data-name="Path 121" d="M144.434,350.018a6.269,6.269,0,0,0-.614-2.933,2.461,2.461,0,0,0-2.5-1.333,3.4,3.4,0,0,0-2.024,1.934,19.589,19.589,0,0,0-2.356,9.071c0-2.486-.041-5.1-1.278-7.258s-4.113-3.587-6.287-2.381c-6.063,3.364,1.241,17.239,6.263,18.973C143.524,368.811,144.579,355.115,144.434,350.018Z" fill="#b35f83"/>
        </g>
        <g id="Group_32" data-name="Group 32">
          <path id="Path_122" data-name="Path 122" d="M108.535,243.22c-.326-.824-8.167-20.218-22.637-23.067-7.56-1.487-15.229,1.742-22.8,9.6-8.13,8.439-11.407,16.723-9.738,24.625,2.788,13.21,18.464,19.747,19.131,20.018l1.207.492,2.522-6.177-1.2-.5c-.13-.053-13.072-5.494-15.125-15.217-1.183-5.6,1.513-11.867,8.013-18.613,5.887-6.113,11.505-8.7,16.692-7.678,10.827,2.124,17.663,18.818,17.731,18.986l.486,1.205,6.2-2.459Z" fill="#ae6c53"/>
          <path id="Path_123" data-name="Path 123" d="M95.181,293.528c-7.121.653-14.6-.339-20.663-4.129s-10.424-10.713-9.912-17.845a16.876,16.876,0,0,1,10.5-14.2c5.8-2.241,13.27-2.707,17.769,1.579-1.466-4.965-3.385-8.129-3.594-13.3s4.557-16.4,16.983-15.2,20.533,23.3,19.794,36.864c-.349,6.393-2.757,15.828-8.349,20.064S101.844,292.916,95.181,293.528Z" fill="#e6b833"/>
          <path id="Path_124" data-name="Path 124" d="M107.655,270.1a5.978,5.978,0,1,0-1.97,2.283l3.59,3.249s-2.636,2.017-1.231,3.216,2.882-1.333,2.882-1.333l1.6,1.422s-3.825,3.223-2.378,4.507,3.064-1.138,5.208-3.609C116.578,278.427,111.9,273.808,107.655,270.1Z" fill="#ae6c53"/>
        </g>
        <g id="Group_36" data-name="Group 36">
          <g id="Group_34" data-name="Group 34">
            <g id="Group_33" data-name="Group 33">
              <path id="Path_125" data-name="Path 125" d="M376.022,157.33a22.352,22.352,0,1,1,15.032,27.81A22.378,22.378,0,0,1,376.022,157.33Zm37.964,11.323a17.264,17.264,0,1,0-21.477,11.61A17.283,17.283,0,0,0,413.986,168.653Z" fill="#e6b833"/>
            </g>
            <path id="Path_126" data-name="Path 126" d="M418.574,156.377c-1.582-5.245.173-6.032,6.565-10.868,4.912-3.716,6.859-1.066,9.037,5.428s.937,10.478-4.865,10.059C423.937,160.607,420.157,161.622,418.574,156.377Z" fill="#a0d9c8"/>
            <path id="Path_127" data-name="Path 127" d="M419.3,156.365c-1.43-3.831.1-6.619-1.615-5.044-1.772,1.631-2.077,3.447-1.353,6.052s2.555,3.123,4.679,3.164C423.006,160.575,420.731,160.2,419.3,156.365Z" fill="#db9731"/>
          </g>
          <path id="Path_128" data-name="Path 128" d="M394.958,146.661a17.228,17.228,0,1,1,.408-5.182,22.1,22.1,0,0,1,5.1.1,22.535,22.535,0,1,0-.337,5.106A17.056,17.056,0,0,0,394.958,146.661Z" fill="#db9731"/>
          <g id="Group_35" data-name="Group 35">
            <path id="Path_129" data-name="Path 129" d="M412.82,108.824a17.962,17.962,0,0,1-1.694,7.421A6.758,6.758,0,0,1,405,120.109c4.453,1.205,7.224,2.753,7.224,10.7a22.8,22.8,0,0,1,2.211-7.117c.915-1.86,4.008-2.971,5.666-3.179-2.349-.691-3.5-1.212-4.625-2.651A16.879,16.879,0,0,1,412.82,108.824Z" fill="#fff"/>
            <path id="Path_130" data-name="Path 130" d="M425.208,118.422c-.128,4.687-.75,11.246-2.453,14.108s-5.127,4.186-9.339,4.878c3.99.53,7.5,1.938,8.861,4.323s2.113,8.247,2.181,12.609c.409-4.225.478-9.61,3.272-13.222,1.8-2.333,3.953-2.862,8.86-3.885C425.177,136.206,425.58,128.5,425.208,118.422Z" fill="#fff"/>
          </g>
        </g>
      </g>
    </g>
  </g>
</svg>
